<?xml version="1.0" encoding="UTF-8" standalone="no"?>
<svg width="48" height="48" viewBox="0 0 48 48" fill="none" xmlns="http://www.w3.org/2000/svg">
  <circle cx="24" cy="24" r="20" fill="#001D3D" stroke="#FFC107" stroke-width="4"/>
  <circle cx="24" cy="24" r="5" fill="#FFC107"/>
  <path d="M10 18C10 13.5817 13.5817 10 18 10H30C34.4183 10 38 13.5817 38 18V30C38 34.4183 34.4183 38 30 38H18C13.5817 38 10 34.4183 10 30V18Z" fill="#001D3D" stroke="#FFC107" stroke-width="3"/>
  <path d="M9 20C9 14.4772 13.4772 10 19 10" stroke="#03DAC6" stroke-width="3" stroke-linecap="round"/>
  <path d="M39 20C39 14.4772 34.5228 10 29 10" stroke="#03DAC6" stroke-width="3" stroke-linecap="round"/>
  <path d="M9 28C9 33.5228 13.4772 38 19 38" stroke="#03DAC6" stroke-width="3" stroke-linecap="round"/>
  <path d="M39 28C39 33.5228 34.5228 38 29 38" stroke="#03DAC6" stroke-width="3" stroke-linecap="round"/>
  <circle cx="24" cy="24" r="7" stroke="#FFFFFF" stroke-width="2"/>
  <path d="M20 22C20 20.3431 21.3431 19 23 19H25C26.6569 19 28 20.3431 28 22V26C28 27.6569 26.6569 29 25 29H23C21.3431 29 20 27.6569 20 26V22Z" fill="#FFFFFF"/>
  <circle cx="24" cy="15" r="2" fill="#FFFFFF"/>
  <circle cx="24" cy="33" r="2" fill="#FFFFFF"/>
  <circle cx="15" cy="24" r="2" fill="#FFFFFF"/>
  <circle cx="33" cy="24" r="2" fill="#FFFFFF"/>
</svg>
